<?xml version="1.0" encoding="UTF-8" standalone="no"?>
<svg
   xmlns:dc="http://purl.org/dc/elements/1.1/"
   xmlns:cc="http://creativecommons.org/ns#"
   xmlns:rdf="http://www.w3.org/1999/02/22-rdf-syntax-ns#"
   xmlns:svg="http://www.w3.org/2000/svg"
   xmlns="http://www.w3.org/2000/svg"
   xmlns:sodipodi="http://sodipodi.sourceforge.net/DTD/sodipodi-0.dtd"
   xmlns:inkscape="http://www.inkscape.org/namespaces/inkscape"
   version="1.1"
   id="svg1003"
   width="927.55084"
   height="448.77914"
   viewBox="0 0 927.55087 448.77914"
   sodipodi:docname="holotable_server.svg"
   inkscape:version="1.0.1 (c497b03c, 2020-09-10)">
  <metadata
     id="metadata1009">
    <rdf:RDF>
      <cc:Work
         rdf:about="">
        <dc:format>image/svg+xml</dc:format>
        <dc:type
           rdf:resource="http://purl.org/dc/dcmitype/StillImage" />
        <dc:title></dc:title>
      </cc:Work>
    </rdf:RDF>
  </metadata>
  <defs
     id="defs1007" />
  <sodipodi:namedview
     pagecolor="#ffffff"
     bordercolor="#666666"
     borderopacity="1"
     objecttolerance="10"
     gridtolerance="10"
     guidetolerance="10"
     inkscape:pageopacity="0"
     inkscape:pageshadow="2"
     inkscape:window-width="1280"
     inkscape:window-height="755"
     id="namedview1005"
     showgrid="false"
     fit-margin-top="0"
     fit-margin-left="0"
     fit-margin-right="0"
     fit-margin-bottom="0"
     inkscape:zoom="0.35681439"
     inkscape:cx="494.71269"
     inkscape:cy="324.36046"
     inkscape:window-x="0"
     inkscape:window-y="23"
     inkscape:window-maximized="1"
     inkscape:current-layer="g1011" />
  <g
     inkscape:groupmode="layer"
     inkscape:label="Image"
     id="g1011"
     transform="translate(-133.28085,-284.91287)">
    <g
       id="g4375">
      <path
         id="path3636"
         style="color:#000000;font-style:normal;font-variant:normal;font-weight:normal;font-stretch:normal;font-size:medium;line-height:normal;font-family:sans-serif;font-variant-ligatures:normal;font-variant-position:normal;font-variant-caps:normal;font-variant-numeric:normal;font-variant-alternates:normal;font-variant-east-asian:normal;font-feature-settings:normal;font-variation-settings:normal;text-indent:0;text-align:start;text-decoration:none;text-decoration-line:none;text-decoration-style:solid;text-decoration-color:#000000;letter-spacing:normal;word-spacing:normal;text-transform:none;writing-mode:lr-tb;direction:ltr;text-orientation:mixed;dominant-baseline:auto;baseline-shift:baseline;text-anchor:start;white-space:normal;shape-padding:0;shape-margin:0;inline-size:0;clip-rule:nonzero;display:inline;overflow:visible;visibility:visible;opacity:1;isolation:auto;mix-blend-mode:normal;color-interpolation:sRGB;color-interpolation-filters:linearRGB;solid-color:#000000;solid-opacity:1;vector-effect:none;fill:#0088aa;fill-opacity:1;fill-rule:nonzero;stroke:none;stroke-width:25;stroke-linecap:round;stroke-linejoin:round;stroke-miterlimit:4;stroke-dasharray:none;stroke-dashoffset:0;stroke-opacity:1;color-rendering:auto;image-rendering:auto;shape-rendering:auto;text-rendering:auto;enable-background:accumulate;stop-color:#000000;stop-opacity:1"
         d="m 293.29454,437.3517 c -47.33012,-10e-6 -85.82422,38.49215 -85.82422,85.82226 v 65.39648 c 0,47.33012 38.49409,85.82422 85.82422,85.82422 h 51.52539 v -25 h -51.52539 c -33.91256,0 -60.82422,-26.91166 -60.82422,-60.82422 v -65.39648 c 0,-33.91254 26.91166,-60.82227 60.82422,-60.82226 h 681.71292 c 33.91254,0 60.82424,26.90972 60.82424,60.82226 v 65.39648 c 0,33.91254 -26.9117,60.82422 -60.82424,60.82422 h -49.543 v 25 h 49.543 c 47.33014,0 85.82424,-38.49409 85.82424,-85.82422 v -65.39648 c 0,-47.33012 -38.4941,-85.82227 -85.82424,-85.82226 z" />
      <g
         aria-label="holotable"
         id="text1616"
         style="font-style:normal;font-weight:normal;font-size:114.637px;line-height:1.25;font-family:sans-serif;fill:#006680;fill-opacity:1;stroke:none;stroke-width:2.86594;stroke-opacity:1">
        <path
           d="m 309.83537,539.43373 v -27.8756 h 26.3083 v 80.82804 h -26.3083 v -29.10705 h -21.15858 v 29.10705 h -26.3083 v -80.82804 h 26.3083 v 27.8756 z"
           style="font-style:normal;font-variant:normal;font-weight:normal;font-stretch:normal;font-family:'Star Jedi';-inkscape-font-specification:'Star Jedi';fill:#006680;stroke:none;stroke-width:2.86594;stroke-opacity:1"
           id="path4324" />
        <path
           d="m 431.86109,552.41995 q 0,13.2661 -5.54154,22.61394 -5.54153,9.34784 -16.06485,14.04975 -10.46735,4.70191 -25.02087,4.70191 -14.55353,0 -25.02087,-4.70191 -10.41137,-4.75788 -15.78498,-13.99378 -5.37361,-9.29186 -5.37361,-22.66991 0,-10.13149 3.07863,-17.80008 3.07863,-7.72457 9.01199,-12.98622 5.93336,-5.26166 14.55353,-7.94847 8.62016,-2.74278 19.53531,-2.74278 14.49755,0 25.02087,4.81386 10.52332,4.75788 16.06485,14.10572 5.54154,9.29187 5.54154,22.55797 z m -64.09149,0.2239 q 0,7.78054 3.47045,13.54597 3.52643,5.76544 13.82585,5.76544 7.94847,0 11.86672,-3.02266 3.97424,-3.02265 4.92581,-6.88493 1.00755,-3.91826 1.3434,-9.40382 -0.33585,-7.78054 -3.75033,-13.54597 -3.41448,-5.82141 -14.3856,-5.82141 -17.2963,0 -17.2963,19.36738 z"
           style="font-style:normal;font-variant:normal;font-weight:normal;font-stretch:normal;font-family:'Star Jedi';-inkscape-font-specification:'Star Jedi';fill:#006680;stroke:none;stroke-width:2.86594;stroke-opacity:1"
           id="path4326" />
        <path
           d="m 435.66739,592.38617 v -80.82804 h 26.3083 v 56.75875 h 43.77252 v 24.06929 z"
           style="font-style:normal;font-variant:normal;font-weight:normal;font-stretch:normal;font-family:'Star Jedi';-inkscape-font-specification:'Star Jedi';fill:#006680;stroke:none;stroke-width:2.86594;stroke-opacity:1"
           id="path4328" />
        <path
           d="m 599.11468,552.41995 q 0,13.2661 -5.54154,22.61394 -5.54153,9.34784 -16.06485,14.04975 -10.46734,4.70191 -25.02087,4.70191 -14.55352,0 -25.02087,-4.70191 -10.41137,-4.75788 -15.78497,-13.99378 -5.37361,-9.29186 -5.37361,-22.66991 0,-10.13149 3.07863,-17.80008 3.07863,-7.72457 9.01199,-12.98622 5.93336,-5.26166 14.55352,-7.94847 8.62017,-2.74278 19.53531,-2.74278 14.49755,0 25.02087,4.81386 10.52332,4.75788 16.06485,14.10572 5.54154,9.29187 5.54154,22.55797 z m -64.09149,0.2239 q 0,7.78054 3.47046,13.54597 3.52643,5.76544 13.82585,5.76544 7.94846,0 11.86672,-3.02266 3.97423,-3.02265 4.92581,-6.88493 1.00755,-3.91826 1.3434,-9.40382 -0.33585,-7.78054 -3.75033,-13.54597 -3.41448,-5.82141 -14.3856,-5.82141 -17.29631,0 -17.29631,19.36738 z"
           style="font-style:normal;font-variant:normal;font-weight:normal;font-stretch:normal;font-family:'Star Jedi';-inkscape-font-specification:'Star Jedi';fill:#006680;stroke:none;stroke-width:2.86594;stroke-opacity:1"
           id="path4330" />
        <path
           d="m 676.5842,511.55813 v 24.06929 h -25.63659 v 56.75875 h -26.3083 v -56.75875 h -25.63659 v -24.06929 z"
           style="font-style:normal;font-variant:normal;font-weight:normal;font-stretch:normal;font-family:'Star Jedi';-inkscape-font-specification:'Star Jedi';fill:#006680;stroke:none;stroke-width:2.86594;stroke-opacity:1"
           id="path4332" />
        <path
           d="m 671.65841,592.38617 26.58817,-80.82804 h 40.13414 l 27.03598,80.82804 h -30.56241 l -5.09373,-14.55353 h -24.01332 l -5.09373,14.55353 z m 46.7392,-62.91601 -11.58684,32.01776 h 22.27809 z"
           style="font-style:normal;font-variant:normal;font-weight:normal;font-stretch:normal;font-family:'Star Jedi';-inkscape-font-specification:'Star Jedi';fill:#006680;stroke:none;stroke-width:2.86594;stroke-opacity:1"
           id="path4334" />
        <path
           d="m 764.35317,592.38617 v -80.82804 h 55.13547 q 13.2661,0.11195 20.15103,4.58996 6.94091,4.478 8.39627,15.00132 0.50377,8.06042 -3.41448,12.65037 -3.91826,4.58996 -12.93025,7.55664 v 0.2239 q 4.42203,0.55975 8.17236,2.40693 3.75033,1.79121 6.26921,4.31008 2.57486,2.46291 3.97424,5.59751 1.39937,3.13461 1.39937,6.15727 0,9.57174 -4.92581,14.49755 -4.86983,4.9258 -12.59439,6.43713 -7.66859,1.51133 -18.63971,1.39938 z m 27.87559,-31.29008 v 14.94535 h 17.96801 q 4.64593,0.16793 8.11639,-2.0151 3.47046,-2.18303 3.47046,-5.37361 0.33585,-3.52643 -2.85473,-5.54154 -3.13461,-2.0151 -8.73212,-2.0151 z m 0,-29.94668 v 12.25855 h 19.59129 q 1.62328,0 3.41448,-1.67925 1.7912,-1.73523 1.90315,-4.58996 -0.2239,-3.30253 -2.18303,-4.64594 -1.90315,-1.3434 -3.19058,-1.3434 z"
           style="font-style:normal;font-variant:normal;font-weight:normal;font-stretch:normal;font-family:'Star Jedi';-inkscape-font-specification:'Star Jedi';fill:#006680;stroke:none;stroke-width:2.86594;stroke-opacity:1"
           id="path4336" />
        <path
           d="m 855.48061,592.38617 v -80.82804 h 26.30829 v 56.75875 h 43.77253 v 24.06929 z"
           style="font-style:normal;font-variant:normal;font-weight:normal;font-stretch:normal;font-family:'Star Jedi';-inkscape-font-specification:'Star Jedi';fill:#006680;stroke:none;stroke-width:2.86594;stroke-opacity:1"
           id="path4338" />
        <path
           d="m 928.91994,592.38617 v -80.82804 h 69.29717 v 24.06929 h -42.98888 v 9.29187 h 27.76365 v 14.10572 h -27.76365 v 9.29187 h 49.81787 v 24.06929 z"
           style="font-style:normal;font-variant:normal;font-weight:normal;font-stretch:normal;font-family:'Star Jedi';-inkscape-font-specification:'Star Jedi';fill:#006680;stroke:none;stroke-width:2.86594;stroke-opacity:1"
           id="path4340" />
      </g>
      <g
         aria-label="server"
         id="text3613"
         style="font-style:normal;font-weight:normal;font-size:114.637px;line-height:1.25;font-family:sans-serif;letter-spacing:10px;fill:#00aad4;fill-opacity:1;stroke:none;stroke-width:2.86594;stroke-opacity:1">
        <path
           d="m 426.16182,642.64036 h -19.70323 q -14.3856,-0.4478 -4.25411,7.94846 18.13593,15.89693 17.80008,30.89826 -0.33585,15.00132 -17.80008,17.91203 h -42.98887 v -24.06929 h 17.01643 q 15.84095,0.4478 4.0302,-8.84407 -19.47933,-17.91203 -16.56863,-32.91336 2.91071,-15.00132 18.35984,-15.00132 h 44.10837 z"
           style="font-style:normal;font-variant:normal;font-weight:normal;font-stretch:normal;font-family:'Star Jedi';-inkscape-font-specification:'Star Jedi';fill:#00aad4;stroke:none;stroke-width:2.86594;stroke-opacity:1"
           id="path4343" />
        <path
           d="m 436.16182,699.39911 v -80.82804 h 69.29717 v 24.06929 h -42.98887 v 9.29187 h 27.76364 v 14.10572 h -27.76364 v 9.29187 h 49.81783 v 24.06929 z"
           style="font-style:normal;font-variant:normal;font-weight:normal;font-stretch:normal;font-family:'Star Jedi';-inkscape-font-specification:'Star Jedi';fill:#00aad4;stroke:none;stroke-width:2.86594;stroke-opacity:1"
           id="path4345" />
        <path
           d="m 522.28796,699.39911 v -80.82804 h 52.6166 q 9.73966,0.8956 16.00887,5.14971 6.26922,4.2541 9.17992,11.41892 2.239,10.74722 0.2239,16.56863 -2.0151,5.82141 -7.05286,9.73966 -5.03776,3.91826 -14.44158,6.15726 l 6.04531,7.72457 h 24.18125 v 24.06929 h -31.90581 l -25.63659,-26.70012 v 26.70012 z m 29.21901,-60.67701 v 14.88938 h 20.37493 q 1.62328,0 3.52643,-1.17548 1.90316,-1.23145 2.01511,-6.10128 -0.27988,-4.64594 -2.29498,-6.10129 -1.95913,-1.51133 -3.30253,-1.51133 z"
           style="font-style:normal;font-variant:normal;font-weight:normal;font-stretch:normal;font-family:'Star Jedi';-inkscape-font-specification:'Star Jedi';fill:#00aad4;stroke:none;stroke-width:2.86594;stroke-opacity:1"
           id="path4347" />
        <path
           d="m 642.16707,618.57107 18.35983,62.07638 18.58373,-62.07638 h 32.40958 l -28.82717,80.82804 h -42.9329 l -28.43535,-80.82804 z"
           style="font-style:normal;font-variant:normal;font-weight:normal;font-stretch:normal;font-family:'Star Jedi';-inkscape-font-specification:'Star Jedi';fill:#00aad4;stroke:none;stroke-width:2.86594;stroke-opacity:1"
           id="path4349" />
        <path
           d="m 720.51268,699.39911 v -80.82804 h 69.29717 v 24.06929 h -42.98887 v 9.29187 h 27.76365 v 14.10572 h -27.76365 v 9.29187 h 49.81783 v 24.06929 z"
           style="font-style:normal;font-variant:normal;font-weight:normal;font-stretch:normal;font-family:'Star Jedi';-inkscape-font-specification:'Star Jedi';fill:#00aad4;stroke:none;stroke-width:2.86594;stroke-opacity:1"
           id="path4351" />
        <path
           d="m 806.63881,699.39911 v -80.82804 h 52.61659 q 9.73967,0.8956 16.00888,5.14971 6.26921,4.2541 9.17992,11.41892 2.239,10.74722 0.2239,16.56863 -2.01511,5.82141 -7.05287,9.73966 -5.03775,3.91826 -14.44157,6.15726 l 6.04531,7.72457 h 24.18124 v 24.06929 h -31.9058 l -25.6366,-26.70012 v 26.70012 z m 29.219,-60.67701 v 14.88938 h 20.37494 q 1.62327,0 3.52643,-1.17548 1.90315,-1.23145 2.0151,-6.10128 -0.27987,-4.64594 -2.29498,-6.10129 -1.95913,-1.51133 -3.30253,-1.51133 z"
           style="font-style:normal;font-variant:normal;font-weight:normal;font-stretch:normal;font-family:'Star Jedi';-inkscape-font-specification:'Star Jedi';fill:#00aad4;stroke:none;stroke-width:2.86594;stroke-opacity:1"
           id="path4353" />
      </g>
      <path
         style="fill:#53676c;stroke-width:0.666667"
         d="m 163.94751,733.19099 c -6.80504,-0.73565 -10.25729,-0.76399 -18.33333,-0.15049 -3.8344,0.29129 -6.74447,0.14762 -9,-0.44431 l -3.33333,-0.87478 0.0706,-3.72214 c 0.0872,-4.60087 1.54932,-6.7797 6.85242,-10.21159 l 3.80409,-2.46182 3.05385,-9.46067 c 1.67962,-5.20337 3.57921,-11.30493 4.22132,-13.559 0.84027,-2.94973 1.593,-4.29221 2.68583,-4.79013 1.35078,-0.61546 1.56074,-1.30361 1.90232,-6.23502 0.21118,-3.04876 0.57201,-15.95926 0.80184,-28.69002 l 0.41787,-23.14681 -8.90506,-0.18652 -8.90505,-0.18651 9.16666,-2.94505 9.16667,-2.94504 v -9.77957 c 0,-5.37877 -0.19828,-19.27012 -0.44062,-30.86969 l -0.44061,-21.09011 -8.72605,-0.18527 -8.72605,-0.18527 9.05205,-2.90917 9.05205,-2.90917 0.79031,-18.75749 c 0.43467,-10.31663 0.78624,-23.1825 0.78128,-28.59084 l -0.009,-9.83333 -7.16666,-0.0413 -7.16667,-0.0413 2.66667,-1.24216 c 1.46666,-0.6832 4.65638,-2.0446 7.08825,-3.02534 l 4.42159,-1.78316 0.36192,-3.09998 c 1.94356,-16.64712 2.4351,-23.49864 2.78119,-38.76669 0.22025,-9.71667 0.53226,-18.56667 0.69336,-19.66667 0.28968,-1.978 0.20434,-2.03866 -7.76014,-5.51576 -4.42917,-1.93367 -9.85602,-4.01704 -12.05967,-4.6297 -2.92559,-0.8134 -4.19779,-1.53351 -4.71514,-2.66899 -0.87358,-1.91729 -0.38592,-2.47303 3.89661,-4.44056 l 3.18114,-1.46152 -0.15406,-4.75013 -0.15407,-4.75014 5.57792,-3.04052 c 3.06786,-1.67229 7.21214,-3.69645 9.20951,-4.49814 6.65368,-2.67059 5.90852,3.21102 7.04863,-55.63505 0.5535,-28.56855 1.2296,-52.84281 1.50244,-53.94281 0.29209,-1.17762 0.68628,4.30493 0.95867,13.33333 0.97869,32.43928 3.17936,92.03473 3.42495,92.74968 0.14163,0.41233 1.70243,0.96637 3.46842,1.2312 3.46176,0.51912 6.43933,1.80488 8.56181,3.6971 0.73333,0.65378 2.53333,1.74487 4,2.42464 l 2.66667,1.23594 0.19528,4.41675 0.19529,4.41676 2.80471,0.44592 c 5.20654,0.82778 8.77489,4.57488 6.85588,7.19928 -1.02045,1.39556 -8.28573,5.18272 -9.94251,5.18272 -0.75368,0 -2.52705,0.80162 -3.94082,1.78136 -1.74661,1.2104 -3.70996,1.87586 -6.1255,2.07617 l -3.555,0.29481 -1.24217,4.42383 c -0.87092,3.10169 -1.24044,6.61553 -1.23641,11.75717 0.007,8.61371 1.60782,47.31731 2.04769,49.5 0.20155,1.00012 0.78289,1.5 1.74444,1.5 0.79318,0 4.15513,0.34792 7.47099,0.77316 6.98073,0.89525 6.46184,1.38278 -2.77187,2.60436 -5.9843,0.79169 -6.16712,0.86718 -6.18199,2.55248 -0.0364,4.12627 2.13402,54.54473 2.40652,55.90333 0.2219,1.10629 0.76847,1.5 2.08244,1.5 0.97986,0 5.23654,0.35027 9.4593,0.77839 9.07267,0.9198 8.44471,1.44724 -3.09961,2.60345 l -8.16666,0.81792 v 31.90012 31.90012 h 1.79426 c 0.98685,0 5.24925,0.35027 9.47201,0.77839 9.07267,0.9198 8.44471,1.44724 -3.09961,2.60345 l -8.16666,0.81792 0.0118,5.06679 c 0.007,2.78673 0.45234,14.66678 0.99085,26.40011 0.5385,11.73334 0.98322,22.45834 0.98825,23.83334 0.007,1.77371 0.29967,2.5 1.00915,2.5 0.63846,0 1,0.64164 1,1.77474 0,0.9761 0.42371,3.3011 0.94157,5.16666 0.51786,1.86556 1.25326,4.76667 1.63423,6.44691 1.61667,7.13024 3.39274,10.42008 8.85418,16.40076 6.97754,7.64093 7.8978,9.15879 7.90086,13.03156 0.002,2.89969 -0.14532,3.18635 -1.83084,3.55568 -1.00833,0.22095 -2.28333,0.56289 -2.83333,0.75987 -1.82914,0.6551 -28.90575,0.64244 -35,-0.0163 z m 11.80277,-53.61714 c 0.3816,-0.4598 1.5221,-0.83601 2.53444,-0.83601 1.20442,0 1.93507,-0.40325 2.11389,-1.16666 0.15031,-0.64167 0.0879,-5.51667 -0.13867,-10.83334 -0.22657,-5.31666 -0.46456,-8.55937 -0.52886,-7.20601 -0.0643,1.35336 -0.37365,2.61934 -0.68746,2.81329 -0.62654,0.38722 -1.60473,-34.89986 -1.292,-46.60727 0.46992,-17.5919 -0.0823,-78.62834 -0.77805,-86 -0.41529,-4.4 -1.01226,-17.75 -1.32659,-29.66667 -0.31433,-11.91667 -0.9003,-24.01337 -1.30216,-26.88157 -0.40185,-2.8682 -0.73064,-9.66866 -0.73064,-15.11214 0,-5.44348 -0.1821,-10.37178 -0.40466,-10.95176 -0.54174,-1.41174 -2.09245,-1.34206 -2.49557,0.11214 -0.17787,0.64166 -0.2309,9.56666 -0.11783,19.83333 0.11307,10.26667 0.1659,21.51667 0.11741,25 -0.38397,27.57707 0.34499,51.71606 1.63449,54.12551 0.36102,0.67458 0.49339,2.1973 0.29416,3.38383 -0.64033,3.81334 -1.19522,23.19439 -0.94932,33.15733 0.28309,11.46996 0.27997,15.95636 -0.0139,20 -0.11992,1.65 0.12336,5.65742 0.54062,8.90538 0.55311,4.30544 0.5653,7.80613 0.045,12.92111 -1.30565,12.83573 -0.37839,51.37885 1.27586,53.0331 0.40722,0.40722 0.78841,2.2554 0.84709,4.10707 0.0858,2.70619 0.16184,2.90944 0.3878,1.03601 0.15461,-1.28186 0.59334,-2.70686 0.97494,-3.16667 z m -2.78645,-242.50267 c 2.60149,-5.64695 3.50631,-12.33333 1.66897,-12.33333 -1.81907,0 -4.73612,12.83923 -3.43299,15.11009 0.6688,1.16546 0.71254,1.16026 0.92586,-0.11009 0.12315,-0.73334 0.50032,-1.93334 0.83816,-2.66667 z"
         id="path4307" />
    </g>
  </g>
</svg>
